<svg version="1.1"
	 xmlns="http://www.w3.org/2000/svg"
	 xmlns:xlink="http://www.w3.org/1999/xlink"
	 width="100%"
	 height="100%"
     fill="#eeeeee"
	 viewBox="0 0 165.235 165.235">
	<g>
		<path d="M165.235,136.756c0,2.582-2.095,4.677-4.676,4.677H4.676c-2.582,0-4.676-2.095-4.676-4.677
			c0-2.581,2.094-4.677,4.676-4.677h155.883C163.14,132.079,165.235,134.175,165.235,136.756z M165.235,61.671v56.026
			c0,2.581-2.095,4.677-4.676,4.677H4.676c-2.582,0-4.676-2.096-4.676-4.677V61.671c0-1.522,0.743-2.953,1.982-3.824
			c1.242-0.871,2.825-1.09,4.277-0.572l14.785,5.315l8.473-18.34c1.081-2.344,3.86-3.349,6.199-2.29l19.473,8.951
			c0.572,0.268,1.072,0.646,1.471,1.078l22.365-26.598c1.778-2.119,5.383-2.119,7.158,0l22.368,26.598
			c0.396-0.438,0.907-0.811,1.468-1.078l19.473-8.951c2.326-1.065,5.121-0.055,6.199,2.29l8.476,18.34l14.784-5.315
			c1.449-0.518,3.033-0.299,4.275,0.572C164.493,58.711,165.235,60.143,165.235,61.671z M114.567,59.119l9.109,10.833l11.68-4.195
			l-6.175-13.36L114.567,59.119z M29.879,65.75l11.679,4.195l9.109-10.833l-14.614-6.729L29.879,65.75z M155.882,68.32L123.78,79.865
			c-1.839,0.67-3.909,0.109-5.163-1.395L82.629,35.658L46.64,78.471c-1.267,1.504-3.325,2.058-5.164,1.395L9.377,68.32v44.706h146.53
			V68.32H155.882z"/>
	</g>
</svg>
